<?xml version="1.0" standalone="no"?>
<!DOCTYPE svg PUBLIC "-//W3C//DTD SVG 20010904//EN"
 "http://www.w3.org/TR/2001/REC-SVG-20010904/DTD/svg10.dtd">
<svg version="1.0" xmlns="http://www.w3.org/2000/svg"
 width="16.000000pt" height="16.000000pt" viewBox="0 0 16.000000 16.000000"
 preserveAspectRatio="xMidYMid meet">
<metadata>
Created by potrace 1.11, written by Peter Selinger 2001-2013
</metadata>
<g transform="translate(0.000000,16.000000) scale(0.002667,-0.002667)"
fill="#000000" stroke="none">
<path d="M2908 5401 c-37 -60 -71 -116 -74 -125 -9 -23 -25 -20 -54 11 -32 34
-92 71 -144 89 -167 60 -349 -11 -466 -181 -100 -145 -142 -303 -135 -510 4
-167 52 -332 124 -434 l20 -27 -28 -45 c-28 -44 -305 -490 -496 -799 -56 -91
-149 -240 -206 -332 -57 -92 -112 -181 -122 -197 -18 -29 -18 -31 2 -68 12
-21 63 -99 114 -173 51 -74 156 -227 232 -340 76 -113 162 -239 190 -280 28
-41 136 -201 240 -355 103 -154 195 -288 203 -298 8 -9 20 -26 26 -37 6 -11
50 -77 98 -147 117 -173 444 -655 525 -775 36 -54 69 -98 72 -98 4 0 483 743
546 847 6 9 42 66 81 127 39 61 197 309 351 552 283 444 446 699 488 764 12
19 62 98 110 175 49 77 95 148 103 157 12 15 9 25 -34 90 -27 40 -51 75 -54
78 -3 3 -115 169 -249 370 -135 201 -322 481 -418 622 -95 141 -173 261 -173
267 0 6 12 30 27 53 71 113 104 234 108 393 3 123 -5 192 -35 284 -45 143
-144 273 -242 320 -139 66 -295 17 -401 -128 l-43 -58 -105 158 c-57 87 -106
158 -109 158 -3 1 -36 -48 -72 -108z"/>
</g>
</svg>
